<?xml version="1.0" standalone="no"?>
<!DOCTYPE svg PUBLIC "-//W3C//DTD SVG 20010904//EN"
 "http://www.w3.org/TR/2001/REC-SVG-20010904/DTD/svg10.dtd">
<svg version="1.0" xmlns="http://www.w3.org/2000/svg"
 width="237.000000pt" height="237.000000pt" viewBox="0 0 237.000000 237.000000"
 preserveAspectRatio="xMidYMid meet">
<metadata>
Created by potrace 1.14, written by Peter Selinger 2001-2017
</metadata>
<g transform="translate(0.000000,237.000000) scale(0.100000,-0.100000)"
fill="#000000" stroke="none">
<path d="M1540 1980 c-42 -7 -425 -117 -875 -252 -110 -33 -238 -71 -285 -84
-254 -74 -303 -140 -249 -334 36 -134 185 -422 254 -493 42 -43 85 -53 263
-63 l124 -7 -7 -26 c-18 -69 -105 -463 -105 -471 0 -7 42 -10 117 -8 l118 3
52 235 c29 129 53 250 53 268 0 74 -58 133 -209 211 -114 58 -177 109 -198
158 -27 66 -9 149 45 207 79 84 231 88 315 9 l27 -27 0 37 c0 56 36 139 77
179 48 47 100 68 166 70 179 3 284 -131 247 -317 -17 -87 -98 -246 -181 -355
-101 -134 -101 -133 -109 -208 -8 -82 0 -109 100 -319 l73 -153 129 0 c70 0
128 1 128 3 0 2 -52 113 -115 246 -64 134 -115 244 -113 245 2 2 38 8 82 14
138 21 186 64 209 189 l12 68 72 3 72 3 -6 -56 c-7 -68 8 -89 80 -110 68 -20
110 -19 131 4 18 20 196 668 196 717 0 18 -8 38 -19 48 -20 18 -147 56 -188
56 -34 0 -59 -31 -67 -81 -4 -24 -11 -61 -17 -81 l-10 -38 -99 0 -100 0 0 202
c0 183 -2 206 -20 244 -28 57 -84 78 -170 64z"/>
</g>
</svg>
